<svg width="67" height="87" viewBox="0 0 67 87" fill="none" xmlns="http://www.w3.org/2000/svg">
<g filter="url(#filter0_d_7_96)">
<path d="M43.6372 37.6004C40.6959 40.3383 21.4342 58.2745 16.9747 62.4301L9.43389 53.6603L30.8735 22.7565L43.6372 37.6004ZM58.4811 5.51621C52.7354 -1.16597 43.4163 -1.16597 37.6706 5.51621C33.882 9.92547 33.5605 14.7574 33.376 16.4711L49.0614 34.713C50.4147 34.5374 54.659 34.1633 58.4811 29.7184C64.2296 23.0361 64.2296 12.1984 58.4811 5.51621ZM30.9853 63.8511C24.5769 63.8511 21.6496 68.4912 17.5199 71.5088C14.5953 73.6419 11.8273 72.559 10.4964 70.6439C10.0127 69.9577 8.63144 67.4864 10.9829 64.6543L10.6334 64.2478L7.48509 60.7003C3.64899 65.3046 4.32842 70.8064 6.70501 74.2174C9.43109 78.1324 14.914 80.1094 20.1118 76.3148C24.5434 73.0793 26.5062 69.5253 30.9853 69.5253C33.882 69.5253 36.5214 71.034 40.7294 78.5421L44.8143 75.4465C40.9195 68.4879 37.075 63.8511 30.9853 63.8511Z" fill="#EAEAEA"/>
</g>
<defs>
<filter id="filter0_d_7_96" x="0.765137" y="0.504578" width="66.0273" height="86.0375" filterUnits="userSpaceOnUse" color-interpolation-filters="sRGB">
<feFlood flood-opacity="0" result="BackgroundImageFix"/>
<feColorMatrix in="SourceAlpha" type="matrix" values="0 0 0 0 0 0 0 0 0 0 0 0 0 0 0 0 0 0 127 0" result="hardAlpha"/>
<feOffset dy="4"/>
<feGaussianBlur stdDeviation="2"/>
<feComposite in2="hardAlpha" operator="out"/>
<feColorMatrix type="matrix" values="0 0 0 0 0 0 0 0 0 0 0 0 0 0 0 0 0 0 0.25 0"/>
<feBlend mode="normal" in2="BackgroundImageFix" result="effect1_dropShadow_7_96"/>
<feBlend mode="normal" in="SourceGraphic" in2="effect1_dropShadow_7_96" result="shape"/>
</filter>
</defs>
</svg>
